<?xml version="1.0" encoding="utf-8"?>
<!-- Generator: Adobe Illustrator 16.0.0, SVG Export Plug-In . SVG Version: 6.00 Build 0)  -->
<!DOCTYPE svg PUBLIC "-//W3C//DTD SVG 1.1//EN" "http://www.w3.org/Graphics/SVG/1.1/DTD/svg11.dtd">
<svg version="1.1" id="Layer_1" xmlns="http://www.w3.org/2000/svg" xmlns:xlink="http://www.w3.org/1999/xlink" x="0px" y="0px"
	 width="247.451px" height="47.106px" viewBox="9.027 1.718 247.451 47.106" enable-background="new 9.027 1.718 247.451 47.106"
	 xml:space="preserve">
<g>
	<g>
		<rect x="65.028" y="1.718" fill="#004065" width="0.283" height="47.106"/>
		<path fill="#004065" d="M24.861,27.598h-5.118v-2.987h8.223v9.553c-2.071,1.301-4.583,2.068-7.597,2.068
			c-6.154,0-11.33-4.378-11.33-10.942c0-6.948,5.444-11.001,11.625-11.001c2.129,0,4.05,0.295,5.826,0.977v3.076h-0.03
			c-1.835-0.77-3.933-1.097-5.768-1.097c-5.322,0-8.191,3.461-8.191,8.017c0,4.7,3.343,8.044,8.046,8.044
			c1.686,0,3.046-0.237,4.318-0.86v-4.849H24.861z M46.683,35.674l-5.234-11.478l-5.058,11.478h-0.854l-6.449-20.761h3.281
			l4.113,13.81l4.79-10.646h0.62l4.822,10.585l4.138-13.749h3.106l-6.417,20.762h-0.858V35.674z"/>
		<path fill="#C8B18B" d="M9.027,42.04v-2.829H53.96v2.829H9.027z M9.027,11.333V8.503H53.96v2.829H9.027z"/>
	</g>
</g>
<g>
	<path fill="#004065" d="M73.787,29.62l1.038-0.411l4.351-10.992l0.608-0.09l0.626-0.179l4.118,11.261l1.218,0.395v0.592h-4.602
		v-0.592l1.522-0.411l-1.093-3.133h-4.369l-1.038,2.918l1.718,0.627v0.591h-4.1V29.62H73.787z M77.601,24.984h3.598l-1.772-5.067
		h-0.018L77.601,24.984z"/>
	<path fill="#004065" d="M86.339,26.291c0-2.901,2.328-4.745,4.494-4.745c1.469,0,2.597,0.788,2.597,1.791
		c0,0.519-0.322,0.985-0.949,0.985c-0.323,0-0.608-0.054-0.608-0.054l-0.27-1.666c-0.054-0.035-0.376-0.286-1.075-0.286
		c-1.485,0-2.614,1.378-2.614,3.276c0,1.987,1.289,3.634,3.098,3.634c1.289,0,2.095-1.129,2.095-1.129l0.358,0.233
		c0,0-0.788,2.149-3.277,2.149C88.165,30.48,86.339,29.049,86.339,26.291z"/>
	<path fill="#004065" d="M94.897,28.367c0-1.432,1.039-2.076,2.883-2.561l1.845-0.483v-0.931c-0.037-1.378-0.752-2.095-1.701-2.095
		c-0.537,0-0.985,0.233-1.128,0.322l-0.071,1.773c0,0-0.447,0.054-0.717,0.054c-0.573,0-0.859-0.287-0.859-0.77
		c0-0.824,1.575-2.131,3.42-2.131c1.808,0,2.596,0.824,2.596,2.597v4.834c0,0.358,0.089,0.484,0.591,0.484h0.895v0.502
		c0,0-1.039,0.446-1.701,0.446c-0.914,0-1.289-0.627-1.289-1.396h-0.054c-1.003,0.949-1.432,1.449-2.56,1.449
		C96.097,30.462,94.897,29.799,94.897,28.367z M99.625,28.278v-2.364l-1.719,0.574c-0.842,0.285-1.378,0.626-1.378,1.379
		c0,0.912,0.699,1.379,1.468,1.379C98.854,29.246,99.409,28.6,99.625,28.278z"/>
	<path fill="#004065" d="M108.039,17.321l3.134-0.484v12.319l1.45,0.357v0.592l-2.398,0.34l-0.43-1.219
		c-0.68,0.663-1.415,1.254-2.524,1.254c-2.525,0-3.617-2.077-3.617-4.029c0-2.917,1.898-4.905,4.458-4.905
		c0.663,0,1.164,0.09,1.54,0.179v-3.563l-1.611-0.286L108.039,17.321L108.039,17.321z M109.651,28.797v-5.317
		c0,0-0.681-1.182-1.952-1.182c-1.397,0-2.542,1.164-2.542,3.242c0,1.753,0.699,3.724,3.008,3.724
		C108.774,29.264,109.275,29.049,109.651,28.797z"/>
	<path fill="#004065" d="M113.769,26.309c0-2.668,1.719-4.763,4.226-4.763c1.987,0,3.151,1.343,3.151,3.796h-5.927v0.179
		c0,2.22,1.271,3.599,3.133,3.599c1.522,0,2.489-1.342,2.489-1.342l0.358,0.213c0,0-0.841,2.49-3.509,2.49
		C114.719,30.48,113.769,27.849,113.769,26.309z M115.31,24.644h4.046c-0.019-1.217-0.573-2.309-1.755-2.309
		C116.473,22.334,115.579,23.318,115.31,24.644z"/>
	<path fill="#004065" d="M133.501,29.586l1.02-0.359v-4.53c-0.07-1.253-0.447-1.952-1.648-1.952c-1.056,0-1.916,0.734-2.184,1.021
		v5.46l1.164,0.375v0.591h-3.707v-0.606l1.02-0.359v-4.53c-0.071-1.253-0.447-1.952-1.647-1.952c-1.164,0-2.185,0.985-2.185,1.021
		v5.46l1.182,0.357v0.608h-3.831v-0.606l1.127-0.377v-6.033l-1.199-0.286v-0.483l2.202-0.86h0.089l0.394,1.629h0.018
		c0.305-0.358,1.433-1.629,2.936-1.629c1.557,0,2.113,0.644,2.274,1.772h0.037c0.179-0.233,1.396-1.772,3.062-1.772
		c1.648,0,2.418,0.717,2.418,3.009v4.673l1.164,0.375v0.592H133.5v-0.609H133.501z"/>
	<path fill="#004065" d="M138.21,29.586l1.199-0.396v-6.123l-1.057-0.376v-0.626l2.542-0.52v7.663l1.343,0.377v0.607h-4.027V29.586
		L138.21,29.586z M138.926,17.93c0-0.591,0.519-1.092,1.109-1.092c0.573,0,1.093,0.501,1.093,1.092c0,0.59-0.52,1.092-1.093,1.092
		C139.446,19.021,138.926,18.52,138.926,17.93z"/>
	<path fill="#004065" d="M143.277,26.291c0-2.901,2.328-4.745,4.494-4.745c1.469,0,2.597,0.788,2.597,1.791
		c0,0.519-0.322,0.985-0.949,0.985c-0.322,0-0.608-0.054-0.608-0.054l-0.268-1.666c-0.055-0.035-0.377-0.286-1.075-0.286
		c-1.485,0-2.614,1.378-2.614,3.276c0,1.987,1.289,3.634,3.098,3.634c1.289,0,2.096-1.129,2.096-1.129l0.357,0.233
		c0,0-0.787,2.149-3.277,2.149C145.103,30.48,143.277,29.049,143.277,26.291z"/>
	<path fill="#004065" d="M164.262,18.305l1.2-0.144l0.177,3.241h-0.644l-0.967-2.292h-2.774v10.08l1.683,0.411v0.591h-5.121v-0.591
		l1.701-0.411V19.111h-2.775l-0.967,2.292h-0.645l0.162-3.241l1.218,0.143L164.262,18.305L164.262,18.305z"/>
	<path fill="#004065" d="M165.747,26.309c0-2.668,1.72-4.763,4.228-4.763c1.985,0,3.15,1.343,3.15,3.796h-5.927v0.179
		c0,2.22,1.271,3.599,3.132,3.599c1.522,0,2.49-1.342,2.49-1.342l0.357,0.213c0,0-0.84,2.49-3.51,2.49
		C166.697,30.48,165.747,27.849,165.747,26.309z M167.288,24.644h4.046c-0.019-1.217-0.572-2.309-1.754-2.309
		C168.453,22.334,167.557,23.318,167.288,24.644z"/>
	<path fill="#004065" d="M174.702,26.291c0-2.901,2.327-4.745,4.493-4.745c1.469,0,2.598,0.788,2.598,1.791
		c0,0.519-0.324,0.985-0.951,0.985c-0.322,0-0.606-0.054-0.606-0.054l-0.27-1.666c-0.054-0.035-0.375-0.286-1.074-0.286
		c-1.485,0-2.614,1.378-2.614,3.276c0,1.987,1.289,3.634,3.099,3.634c1.288,0,2.093-1.129,2.093-1.129l0.359,0.233
		c0,0-0.789,2.149-3.277,2.149C176.527,30.48,174.702,29.049,174.702,26.291z"/>
	<path fill="#004065" d="M188.129,29.586l1.022-0.359v-4.53c-0.073-1.253-0.447-1.952-1.648-1.952c-1.166,0-2.185,0.985-2.185,1.021
		v5.46l1.181,0.357v0.608h-3.83v-0.606l1.129-0.396V18.252l-1.2-0.466v-0.484l2.722-0.465v6.337
		c0.304-0.375,1.433-1.629,2.919-1.629c1.665,0,2.435,0.717,2.435,3.009v4.672l1.163,0.376v0.591h-3.707V29.586z"/>
	<path fill="#004065" d="M192.895,29.586l1.128-0.377v-6.033l-1.201-0.286v-0.483l2.202-0.86h0.09l0.396,1.629h0.018
		c0.305-0.358,1.433-1.629,2.937-1.629c1.665,0,2.436,0.717,2.436,3.009v4.673l1.163,0.375v0.592h-3.707v-0.609l1.02-0.359v-4.53
		c-0.07-1.253-0.447-1.952-1.646-1.952c-1.165,0-2.185,0.985-2.185,1.021v5.46l1.183,0.357v0.608h-3.831V29.586L192.895,29.586z"/>
	<path fill="#004065" d="M203.154,26.146c0-2.56,1.828-4.637,4.154-4.637c2.543,0,4.154,1.594,4.154,4.296
		c0,2.597-1.789,4.673-4.154,4.673C204.604,30.48,203.154,28.457,203.154,26.146z M207.522,29.693c1.433,0,2.312-1.451,2.312-3.277
		c0-2.633-1.111-4.137-2.723-4.137c-1.467,0-2.328,1.415-2.328,3.241C204.783,27.49,205.606,29.693,207.522,29.693z"/>
	<path fill="#004065" d="M212.537,29.586l1.129-0.377V18.377l-1.146-0.34v-0.573l2.67-0.626v12.389l1.217,0.359v0.607h-3.867v-0.607
		H212.537z"/>
	<path fill="#004065" d="M217.568,26.146c0-2.56,1.827-4.637,4.153-4.637c2.544,0,4.154,1.594,4.154,4.296
		c0,2.597-1.79,4.673-4.154,4.673C219.019,30.48,217.568,28.457,217.568,26.146z M221.937,29.693c1.433,0,2.311-1.451,2.311-3.277
		c0-2.633-1.109-4.137-2.721-4.137c-1.467,0-2.328,1.415-2.328,3.241C219.197,27.49,220.022,29.693,221.937,29.693z"/>
	<path fill="#004065" d="M233.398,22.709l-0.019,0.054c0.447,0.376,0.913,1.038,0.913,1.988c0,1.953-1.773,3.205-3.564,3.205
		c-0.447,0-0.877-0.071-1.289-0.214c-0.41,0.321-0.625,0.627-0.625,0.895c0,0.252,0.248,0.592,0.662,0.609l3.384,0.196
		c1.771,0.106,2.56,0.896,2.56,2.005c0,1.486-1.915,3.313-5.246,3.313c-1.7,0-3.24-0.717-3.24-2.022
		c0-0.663,0.447-1.415,1.307-1.882l0.43-0.232v-0.035l-1.271-1.219c0.356-0.912,0.752-1.359,1.415-1.915
		c-0.825-0.501-1.415-1.379-1.415-2.632c0-1.952,1.522-3.277,3.437-3.277c0.824,0,1.396,0.197,2.113,0.448l2.49-0.27v1.092
		L233.398,22.709z M229.315,30.678c-0.267,0.287-0.769,0.949-0.769,1.594c0,0.662,0.591,1.593,2.471,1.593
		c2.199,0,3.114-1.057,3.114-1.88c0-0.628-0.411-1.021-1.432-1.093L229.315,30.678z M232.664,24.984c0-1.916-0.86-2.739-1.934-2.739
		c-1.056,0-1.682,0.788-1.682,2.149c0,1.754,0.732,2.793,1.896,2.793C231.893,27.186,232.664,26.344,232.664,24.984z"/>
	<path fill="#004065" d="M236.333,29.586l1.2-0.396v-6.123l-1.057-0.376v-0.626l2.544-0.52v7.663l1.34,0.377v0.607h-4.027V29.586z
		 M237.052,17.93c0-0.591,0.519-1.092,1.107-1.092c0.572,0,1.092,0.501,1.092,1.092c0,0.59-0.52,1.092-1.092,1.092
		C237.569,19.021,237.052,18.52,237.052,17.93z"/>
	<path fill="#004065" d="M241.419,26.309c0-2.668,1.719-4.763,4.225-4.763c1.988,0,3.152,1.343,3.152,3.796h-5.925v0.179
		c0,2.22,1.27,3.599,3.132,3.599c1.521,0,2.488-1.342,2.488-1.342l0.359,0.213c0,0-0.843,2.49-3.51,2.49
		C242.369,30.48,241.419,27.849,241.419,26.309z M242.958,24.644h4.047c-0.018-1.217-0.572-2.309-1.755-2.309
		C244.125,22.334,243.228,23.318,242.958,24.644z"/>
	<path fill="#004065" d="M250.766,29.835l-0.288-2.507h0.592l0.913,1.97c0.27,0.233,0.646,0.537,1.468,0.537
		c0.914,0,1.541-0.537,1.541-1.36c0-0.662-0.377-1.199-1.737-1.809l-0.717-0.322c-1.234-0.556-1.845-1.2-1.845-2.345
		c0-1.379,1.451-2.489,3.08-2.489c0.663,0,1.415,0.197,2.113,0.573l0.09,2.131h-0.536l-0.735-1.558
		c-0.214-0.179-0.57-0.447-1.199-0.447c-0.859,0-1.36,0.555-1.36,1.235c0,0.717,0.377,1.164,1.452,1.647l0.77,0.34
		c1.593,0.699,2.111,1.486,2.111,2.453c0,1.486-1.648,2.65-3.384,2.65C252.181,30.533,251.356,30.193,250.766,29.835z"/>
</g>
</svg>
